<?xml version="1.0" encoding="UTF-8" standalone="no"?>
<svg
   width="24px"
   height="24px"
   stroke-width="1.5"
   viewBox="0 0 24 24"
   fill="none"
   color="#000000"
   version="1.1"
   id="svg64"
   sodipodi:docname="orcid-copy.svg"
   inkscape:version="1.2.2 (b0a8486, 2022-12-01)"
   xmlns:inkscape="http://www.inkscape.org/namespaces/inkscape"
   xmlns:sodipodi="http://sodipodi.sourceforge.net/DTD/sodipodi-0.dtd"
   xmlns="http://www.w3.org/2000/svg"
   xmlns:svg="http://www.w3.org/2000/svg">
  <defs
     id="defs68">
    <inkscape:path-effect
       effect="powerclip"
       id="path-effect7836"
       is_visible="true"
       lpeversion="1"
       inverse="true"
       flatten="false"
       hide_clip="false"
       message="Use fill-rule evenodd on &lt;b&gt;fill and stroke&lt;/b&gt; dialog if no flatten result after convert clip to paths." />
    <inkscape:path-effect
       effect="powerclip"
       id="path-effect7832"
       is_visible="true"
       lpeversion="1"
       inverse="true"
       flatten="false"
       hide_clip="false"
       message="Use fill-rule evenodd on &lt;b&gt;fill and stroke&lt;/b&gt; dialog if no flatten result after convert clip to paths." />
    <clipPath
       clipPathUnits="userSpaceOnUse"
       id="clipPath7824">
      <circle
         fill="#a0c3ff"
         cx="11.869748"
         cy="14.768309"
         id="circle7826"
         style="display:none;fill:none;stroke:#000000;stroke-width:1.08696;stroke-linecap:round;stroke-linejoin:round;stroke-dasharray:none;stroke-opacity:1"
         r="4.0579767"
         d="m 15.927725,14.768309 a 4.0579767,4.0579767 0 0 1 -4.057977,4.057976 4.0579767,4.0579767 0 0 1 -4.0579766,-4.057976 4.0579767,4.0579767 0 0 1 4.0579766,-4.057977 4.0579767,4.0579767 0 0 1 4.057977,4.057977 z" />
      <path
         id="lpe_path-effect7832"
         style="fill:none;stroke:#000000;stroke-width:1.08696;stroke-linecap:round;stroke-linejoin:round;stroke-dasharray:none;stroke-opacity:1"
         class="powerclip"
         d="M 6.326269,-0.63023031 H 24.369744 V 21.628394 H 6.326269 Z M 15.927725,14.768309 a 4.0579767,4.0579767 0 0 0 -4.057977,-4.057977 4.0579767,4.0579767 0 0 0 -4.0579766,4.057977 4.0579767,4.0579767 0 0 0 4.0579766,4.057976 4.0579767,4.0579767 0 0 0 4.057977,-4.057976 z" />
    </clipPath>
    <clipPath
       clipPathUnits="userSpaceOnUse"
       id="clipPath7828">
      <circle
         fill="#a0c3ff"
         cx="11.869748"
         cy="14.768309"
         id="circle7830"
         style="display:none;fill:none;stroke:#000000;stroke-width:1.08696;stroke-linecap:round;stroke-linejoin:round;stroke-dasharray:none;stroke-opacity:1"
         r="4.0579767"
         d="m 15.927725,14.768309 a 4.0579767,4.0579767 0 0 1 -4.057977,4.057976 4.0579767,4.0579767 0 0 1 -4.0579766,-4.057976 4.0579767,4.0579767 0 0 1 4.0579766,-4.057977 4.0579767,4.0579767 0 0 1 4.057977,4.057977 z" />
      <path
         id="lpe_path-effect7836"
         style="fill:none;stroke:#000000;stroke-width:1.08696;stroke-linecap:round;stroke-linejoin:round;stroke-dasharray:none;stroke-opacity:1"
         class="powerclip"
         d="M -0.63024743,-0.63023031 H 17.413229 V 21.628394 H -0.63024743 Z M 15.927725,14.768309 a 4.0579767,4.0579767 0 0 0 -4.057977,-4.057977 4.0579767,4.0579767 0 0 0 -4.0579766,4.057977 4.0579767,4.0579767 0 0 0 4.0579766,4.057976 4.0579767,4.0579767 0 0 0 4.057977,-4.057976 z" />
    </clipPath>
  </defs>
  <sodipodi:namedview
     id="namedview66"
     pagecolor="#ffffff"
     bordercolor="#000000"
     borderopacity="0.25"
     inkscape:showpageshadow="2"
     inkscape:pageopacity="0.0"
     inkscape:pagecheckerboard="0"
     inkscape:deskcolor="#d1d1d1"
     showgrid="false"
     inkscape:zoom="24.303378"
     inkscape:cx="16.705497"
     inkscape:cy="11.850205"
     inkscape:window-width="884"
     inkscape:window-height="1050"
     inkscape:window-x="9"
     inkscape:window-y="33"
     inkscape:window-maximized="0"
     inkscape:current-layer="svg64" />
  <path
     d="M12 22c5.523 0 10-4.477 10-10S17.523 2 12 2 2 6.477 2 12s4.477 10 10 10z"
     stroke="#000000"
     stroke-width="1.5"
     stroke-linecap="round"
     stroke-linejoin="round"
     id="path56" />
  <path
     d="M 11.869749,16.084974 4.9132001,10.420467 11.869749,4.9131917 Z"
     id="path6884"
     stroke="#000000"
     stroke-width="1.5"
     stroke-linecap="round"
     stroke-linejoin="round"
     clip-path="url(#clipPath7828)"
     inkscape:path-effect="#path-effect7836"
     inkscape:original-d="M 11.869749,16.084974 4.9132001,10.420467 11.869749,4.9131917 Z" />
  <path
     d="M 11.869749,16.084974 18.826296,10.420467 11.869749,4.9131917 Z"
     id="path6886"
     stroke="#000000"
     stroke-width="1.5"
     stroke-linecap="round"
     stroke-linejoin="round"
     clip-path="url(#clipPath7824)"
     inkscape:path-effect="#path-effect7832"
     inkscape:original-d="M 11.869749,16.084974 18.826296,10.420467 11.869749,4.9131917 Z" />
  <circle
     cx="11.869748"
     cy="14.768309"
     id="circle6888"
     stroke="#000000"
     stroke-width="1.5"
     stroke-linecap="round"
     stroke-linejoin="round"
     r="4.0579767" />
  <path
     d="m 8.2022608,13.029173 c 0.6513078,-1.37101 2.0487032,-2.318867 3.6674882,-2.318867 1.618784,0 3.01618,0.947857 3.667486,2.318867 z"
     id="path6890"
     stroke="#000000"
     stroke-width="1.5"
     stroke-linecap="round"
     stroke-linejoin="round" />
</svg>
