<?xml version="1.0" encoding="UTF-8" standalone="no"?>
<svg
   width="24px"
   height="24px"
   stroke-width="1.5"
   viewBox="0 0 24 24"
   fill="none"
   color="#000000"
   version="1.1"
   id="svg8"
   sodipodi:docname="google-scholar-alt.svg"
   inkscape:version="1.2.2 (b0a8486, 2022-12-01)"
   xmlns:inkscape="http://www.inkscape.org/namespaces/inkscape"
   xmlns:sodipodi="http://sodipodi.sourceforge.net/DTD/sodipodi-0.dtd"
   xmlns="http://www.w3.org/2000/svg"
   xmlns:svg="http://www.w3.org/2000/svg">
  <defs
     id="defs12" />
  <sodipodi:namedview
     id="namedview10"
     pagecolor="#ffffff"
     bordercolor="#000000"
     borderopacity="0.25"
     inkscape:showpageshadow="2"
     inkscape:pageopacity="0.0"
     inkscape:pagecheckerboard="0"
     inkscape:deskcolor="#d1d1d1"
     showgrid="false"
     showguides="false"
     inkscape:zoom="23.833469"
     inkscape:cx="-0.14685231"
     inkscape:cy="16.384522"
     inkscape:window-width="1792"
     inkscape:window-height="989"
     inkscape:window-x="0"
     inkscape:window-y="25"
     inkscape:window-maximized="0"
     inkscape:current-layer="g7617" />
  <path
     d="M12 22c5.523 0 10-4.477 10-10S17.523 2 12 2 2 6.477 2 12s4.477 10 10 10z"
     stroke="#000000"
     stroke-width="1.5"
     stroke-linecap="round"
     stroke-linejoin="round"
     id="path2" />
  <g
     id="g7617"
     transform="translate(-0.31333815,0.02092471)">
    <g
       id="g9868"
       transform="translate(0.49143065)"
       style="fill:#ffffff;fill-opacity:1">
      <path
         fill="currentColor"
         d="M 16.949928,7.0972457 V 6.1770602 l 0.667869,-0.5213876 h -7.22746 L 6.026018,9.4494734 H 8.92038 a 2.7822804,2.7822804 0 0 0 -0.0074,0.2103467 c 0,0.7043629 0.2439647,1.2869799 0.7323069,1.7524119 0.4883731,0.466207 1.0898141,0.697704 1.8019461,0.697704 0.166353,0 0.329457,-0.01245 0.487868,-0.03458 -0.09822,0.219641 -0.1478,0.423162 -0.1478,0.61303 0,0.33368 0.152022,0.69034 0.455057,1.069199 -1.32574,0.09022 -2.2998148,0.328849 -2.9207516,0.715109 -0.3558471,0.21964 -0.6420198,0.496859 -0.8579417,0.828917 -0.2159532,0.334525 -0.3236439,0.693214 -0.3236439,1.080014 0,0.32601 0.069674,0.619585 0.2101412,0.880651 0.1404345,0.261063 0.3236476,0.475431 0.5511937,0.64148 0.2270025,0.16787 0.4889162,0.307526 0.7845803,0.421335 0.2951272,0.112995 0.588159,0.193214 0.880617,0.238627 a 5.6447795,5.6447795 0 0 0 0.868617,0.06753 c 0.455124,0 0.910757,-0.0586 1.370106,-0.175269 0.458268,-0.117759 0.888014,-0.292019 1.289818,-0.523516 0.400754,-0.229947 0.727003,-0.543555 0.977292,-0.936608 0.249711,-0.394675 0.374873,-0.838174 0.374873,-1.329185 0,-0.372238 -0.07602,-0.710922 -0.228087,-1.018447 -0.150976,-0.306584 -0.335809,-0.558964 -0.555919,-0.755053 -0.219675,-0.196422 -0.439281,-0.37693 -0.659456,-0.539566 -0.219639,-0.163715 -0.405488,-0.329456 -0.556467,-0.500539 -0.151549,-0.170504 -0.227578,-0.339729 -0.227578,-0.506318 0,-0.166282 0.05859,-0.326822 0.176251,-0.48202 0.116748,-0.155778 0.259308,-0.305739 0.426099,-0.449619 0.166827,-0.143609 0.333684,-0.303033 0.499965,-0.47756 0.166317,-0.173919 0.30888,-0.399644 0.426099,-0.676083 0.117761,-0.2764065 0.175812,-0.5894755 0.175812,-0.9379254 0,-0.4545838 -0.08606,-0.8265154 -0.255019,-1.125696 -0.02006,-0.03453 -0.04115,-0.060925 -0.06336,-0.1021154 l 1.922915,-1.5770695 v 0.5784598 c -0.249811,0.031427 -0.223827,0.1806103 -0.223827,0.3593639 v 4.3477306 c 0,0.201319 0.164727,0.366084 0.366089,0.366084 h 0.134789 c 0.201321,0 0.366053,-0.164728 0.366053,-0.366084 V 7.4564733 c 0,-0.1783139 0.02627,-0.3273624 -0.221698,-0.3591933 z m -3.627755,7.5177203 c 0.03852,0.02533 0.125157,0.09394 0.260795,0.204028 0.136855,0.109584 0.229676,0.192438 0.279315,0.250524 a 14.987902,14.987902 0 0 1 0.215447,0.255019 c 0.09505,0.114041 0.159423,0.213015 0.193216,0.295122 0.03378,0.0837 0.0681,0.184531 0.102958,0.302292 a 1.2931645,1.2931645 0 0 1 0.05019,0.356897 c 0,0.576064 -0.2218,1.002904 -0.664189,1.279276 -0.443499,0.276407 -0.972051,0.414745 -1.586059,0.414745 -0.310436,0 -0.615091,-0.03693 -0.914473,-0.107993 -0.298811,-0.0715 -0.584947,-0.180307 -0.85794,-0.324425 C 10.128471,17.396571 9.9088651,17.195653 9.742514,16.939082 9.5756557,16.680921 9.4922274,16.38441 9.4922274,16.05208 c 0,-0.348721 0.094515,-0.65182 0.2845836,-0.90917 0.1890256,-0.257653 0.437182,-0.452488 0.744471,-0.585084 0.306244,-0.133335 0.616679,-0.227816 0.931336,-0.283774 a 5.3343457,5.3343457 0 0 1 0.960937,-0.08633 c 0.151045,0 0.26816,0.0085 0.351588,0.02351 0.01537,0.0074 0.102455,0.06996 0.261371,0.187975 0.15895,0.116986 0.257651,0.189058 0.295667,0.215723 z m -0.113504,-3.398621 c -0.250249,0.299386 -0.599241,0.449012 -1.045917,0.449012 -0.400755,0 -0.753462,-0.160978 -1.056495,-0.483612 -0.304117,-0.321787 -0.521119,-0.686895 -0.653642,-1.095827 -0.133034,-0.4091699 -0.19957,-0.8104313 -0.19957,-1.2045663 0,-0.4627265 0.121511,-0.8566557 0.364296,-1.181858 0.242853,-0.32608 0.591336,-0.4894557 1.04541,-0.4894557 0.401264,0 0.756032,0.170237 1.062274,0.5121645 0.307292,0.3407774 0.527473,0.7235564 0.659493,1.1477973 0.132523,0.4237314 0.19845,0.8288812 0.19845,1.2159182 0,0.454346 -0.125091,0.831586 -0.374264,1.130427 z"
         id="path2-7"
         style="fill:#ffffff;fill-opacity:1;stroke-width:0.0506859" />
    </g>
  </g>
</svg>
