<?xml version="1.0" encoding="UTF-8" standalone="no"?>
<svg
   width="24px"
   height="24px"
   stroke-width="1.5"
   viewBox="0 0 24 24"
   fill="none"
   color="#000000"
   version="1.1"
   id="svg7995"
   sodipodi:docname="orcid-copy.svg"
   inkscape:version="1.2.2 (b0a8486, 2022-12-01)"
   xmlns:inkscape="http://www.inkscape.org/namespaces/inkscape"
   xmlns:sodipodi="http://sodipodi.sourceforge.net/DTD/sodipodi-0.dtd"
   xmlns="http://www.w3.org/2000/svg"
   xmlns:svg="http://www.w3.org/2000/svg">
  <defs
     id="defs7999" />
  <sodipodi:namedview
     id="namedview7997"
     pagecolor="#ffffff"
     bordercolor="#000000"
     borderopacity="0.25"
     inkscape:showpageshadow="2"
     inkscape:pageopacity="0.0"
     inkscape:pagecheckerboard="0"
     inkscape:deskcolor="#d1d1d1"
     showgrid="false"
     inkscape:zoom="37.627429"
     inkscape:cx="15.480728"
     inkscape:cy="12.809804"
     inkscape:window-width="1774"
     inkscape:window-height="1050"
     inkscape:window-x="9"
     inkscape:window-y="33"
     inkscape:window-maximized="0"
     inkscape:current-layer="svg7995" />
  <path
     d="M12 22c5.523 0 10-4.477 10-10S17.523 2 12 2 2 6.477 2 12s4.477 10 10 10z"
     stroke="#000000"
     stroke-width="1.5"
     stroke-linecap="round"
     stroke-linejoin="round"
     id="path7987" />
  <path
     id="path12906"
     d="m 9.6414377,13.189891 2.3499263,2.51316 c 0,0 0.75322,0.818231 1.88305,0.68186 M 7.4249718,16.96176 V 9.9413448 c 0,0 4.5899312,-0.6989057 4.4957782,1.5341812 -0.09415,2.233088 -4.4437742,1.692688 -4.4437742,1.692688"
     stroke="#000000"
     stroke-width="1.5"
     stroke-linecap="butt"
     stroke-linejoin="round"
     sodipodi:nodetypes="cccccsc" />
  <path
     id="path14129"
     d="M 16.492713,8.2134419 C 16.330156,8.0612789 16.137871,7.8606743 15.833421,7.7365791 15.557486,7.6241067 15.201989,7.5992574 15.004728,7.599815 c -0.542021,0 -0.960439,0.2065308 -1.235292,0.5907265 -0.193933,0.2710882 -0.179237,0.6550596 -0.179237,1.0483371 0,0.4592082 -0.01164,0.9139744 0.273201,1.2226744 0.304835,0.330362 0.766818,0.453886 1.244555,0.453886 0.533633,0 0.972691,-0.206445 1.194204,-0.477329 0.250192,-0.305955 0.248556,-0.6992832 0.272873,-1.0669022 h -1.362726"
     stroke="#000000"
     stroke-width="1.5"
     stroke-linecap="butt"
     stroke-linejoin="round"
     sodipodi:nodetypes="cscssssscc" />
</svg>
